# xmcd
#
# Track frame offsets:
#	150
#	12080
#	24357
#	38011
#	52560
#	62711
#	80567
#	91296
#	108161
#	118798
#	133555
#	144717
#	154739
#	166977
#	185613
#	198123
#	207426
#	219082
#	230356
#	244304
#	256830
#	269877
#	281648
#	293933
#
# Disc length: 4056 seconds
#
# Revision: 3
# Processed by: cddbd v1.5.2PL0 Copyright (c) Steve Scherf et al.
# Submitted via: EasyCDDAExtractor 15.3.0.1
#
DISCID=520fd618
DTITLE=Bass Mountain Boys - A Beautiful Life
DYEAR=1990
DGENRE=Bluegrass
TTITLE0=A Beautiful Life
TTITLE1=I Feel Like Travelling On
TTITLE2=The Hand Reached Down
TTITLE3=On The Jericho Road
TTITLE4=I'll Be No Stranger There
TTITLE5=Avenue Of Prayer
TTITLE6=Just Over In The Gloryland
TTITLE7=My Lord Keeps A Record
TTITLE8=Get Behind Me Satan
TTITLE9=It Is No Secret (What God Can Do)
TTITLE10=You Go To Your Church (And I'll Go To Mine)
TTITLE11=The Story Of The Pharisees
TTITLE12=I Like To Hear  'Em Preach It
TTITLE13=Those Lonely Tombs
TTITLE14=Satisfied
TTITLE15=Going Home
TTITLE16=Jesus Hold My Hand
TTITLE17=Springtime In Heaven
TTITLE18=Echoes From The Burning Bush
TTITLE19=Wonderful Saviour
TTITLE20=Lord Lead Me On
TTITLE21=Who'll Sing For Me
TTITLE22=So Happy I'll Be
TTITLE23=I'll Shout And Shine
EXTD=YEAR: 1990
EXTT0=
EXTT1=
EXTT2=
EXTT3=
EXTT4=
EXTT5=
EXTT6=
EXTT7=
EXTT8=
EXTT9=
EXTT10=
EXTT11=
EXTT12=
EXTT13=
EXTT14=
EXTT15=
EXTT16=
EXTT17=
EXTT18=
EXTT19=
EXTT20=
EXTT21=
EXTT22=
EXTT23=
PLAYORDER=
